<?xml version="1.0" encoding="UTF-8" standalone="no"?>
<!-- Created with Inkscape (http://www.inkscape.org/) -->

<svg
   xmlns:dc="http://purl.org/dc/elements/1.1/"
   xmlns:cc="http://creativecommons.org/ns#"
   xmlns:rdf="http://www.w3.org/1999/02/22-rdf-syntax-ns#"
   xmlns:svg="http://www.w3.org/2000/svg"
   xmlns="http://www.w3.org/2000/svg"
   xmlns:xlink="http://www.w3.org/1999/xlink"
   xmlns:sodipodi="http://sodipodi.sourceforge.net/DTD/sodipodi-0.dtd"
   xmlns:inkscape="http://www.inkscape.org/namespaces/inkscape"
   version="1.1"
   id="svg4504"
   xml:space="preserve"
   width="387.22037"
   height="275.41245"
   viewBox="0 0 387.22036 275.41244"
   sodipodi:docname="presentation_2alt.svg"
   inkscape:version="0.92.0 r"><metadata
     id="metadata4510"><rdf:RDF><cc:Work
         rdf:about=""><dc:format>image/svg+xml</dc:format><dc:type
           rdf:resource="http://purl.org/dc/dcmitype/StillImage" /><dc:title></dc:title></cc:Work></rdf:RDF></metadata><defs
     id="defs4508"><marker
       inkscape:stockid="Arrow2Mend"
       orient="auto"
       refY="0"
       refX="0"
       id="Arrow2Mend"
       style="overflow:visible"
       inkscape:isstock="true"><path
         id="path5839"
         style="fill:#000000;fill-opacity:1;fill-rule:evenodd;stroke:#000000;stroke-width:0.625;stroke-linejoin:round;stroke-opacity:1"
         d="M 8.7185878,4.0337352 -2.2072895,0.01601326 8.7185884,-4.0017078 c -1.7454984,2.3720609 -1.7354408,5.6174519 -6e-7,8.035443 z"
         transform="scale(-0.6)"
         inkscape:connector-curvature="0" /></marker><marker
       inkscape:stockid="Arrow1Lend"
       orient="auto"
       refY="0"
       refX="0"
       id="Arrow1Lend"
       style="overflow:visible"
       inkscape:isstock="true"><path
         id="path5815"
         d="M 0,0 5,-5 -12.5,0 5,5 Z"
         style="fill:#000000;fill-opacity:1;fill-rule:evenodd;stroke:#000000;stroke-width:1.00000003pt;stroke-opacity:1"
         transform="matrix(-0.8,0,0,-0.8,-10,0)"
         inkscape:connector-curvature="0" /></marker><marker
       inkscape:stockid="Arrow1Send"
       orient="auto"
       refY="0"
       refX="0"
       id="Arrow1Send"
       style="overflow:visible"
       inkscape:isstock="true"><path
         id="path5827"
         d="M 0,0 5,-5 -12.5,0 5,5 Z"
         style="fill:#000000;fill-opacity:1;fill-rule:evenodd;stroke:#000000;stroke-width:1.00000003pt;stroke-opacity:1"
         transform="matrix(-0.2,0,0,-0.2,-1.2,0)"
         inkscape:connector-curvature="0" /></marker><marker
       inkscape:stockid="Arrow2Send"
       orient="auto"
       refY="0"
       refX="0"
       id="Arrow2Send"
       style="overflow:visible"
       inkscape:isstock="true"><path
         id="path5845"
         style="fill:#000000;fill-opacity:1;fill-rule:evenodd;stroke:#000000;stroke-width:0.625;stroke-linejoin:round;stroke-opacity:1"
         d="M 8.7185878,4.0337352 -2.2072895,0.01601326 8.7185884,-4.0017078 c -1.7454984,2.3720609 -1.7354408,5.6174519 -6e-7,8.035443 z"
         transform="matrix(-0.3,0,0,-0.3,0.69,0)"
         inkscape:connector-curvature="0" /></marker><clipPath
       clipPathUnits="userSpaceOnUse"
       id="clipPath4726"><path
         d="m 16.30022,8.50403 h -32.60044 c -1.57321,0 -2.83467,-1.26146 -2.83467,-2.83467 V -5.66936 c 0,-1.57321 1.26146,-2.83467 2.83467,-2.83467 h 32.60044 c 1.57321,0 2.83467,1.26146 2.83467,2.83467 V 5.66936 c 0,1.57321 -1.26146,2.83467 -2.83467,2.83467 z"
         id="path4724"
         inkscape:connector-curvature="0" /></clipPath><clipPath
       clipPathUnits="userSpaceOnUse"
       id="clipPath4740"><path
         d="M 0,0 H 100 V 100 H 0 Z"
         id="path4738"
         inkscape:connector-curvature="0" /></clipPath><linearGradient
       x1="0"
       y1="0"
       x2="0"
       y2="100.00128"
       gradientUnits="userSpaceOnUse"
       id="linearGradient4752"><stop
         style="stop-opacity:1;stop-color:#cccce6"
         offset="0"
         id="stop4742" /><stop
         style="stop-opacity:1;stop-color:#cccce6"
         offset="25.00032"
         id="stop4744" /><stop
         style="stop-opacity:1;stop-color:#e6e6f2"
         offset="50.00064"
         id="stop4746" /><stop
         style="stop-opacity:1;stop-color:#ffffff"
         offset="75.00096"
         id="stop4748" /><stop
         style="stop-opacity:1;stop-color:#ffffff"
         offset="100.00128"
         id="stop4750" /></linearGradient><clipPath
       clipPathUnits="userSpaceOnUse"
       id="clipPath4790"><path
         d="m 15.49767,8.50403 h -30.99534 c -1.57321,0 -2.83467,-1.26146 -2.83467,-2.83467 V -5.66936 c 0,-1.57321 1.26146,-2.83467 2.83467,-2.83467 h 30.99534 c 1.57321,0 2.83467,1.26146 2.83467,2.83467 V 5.66936 c 0,1.57321 -1.26146,2.83467 -2.83467,2.83467 z"
         id="path4788"
         inkscape:connector-curvature="0" /></clipPath><clipPath
       clipPathUnits="userSpaceOnUse"
       id="clipPath4804"><path
         d="M 0,0 H 100 V 100 H 0 Z"
         id="path4802"
         inkscape:connector-curvature="0" /></clipPath><linearGradient
       x1="0"
       y1="0"
       x2="0"
       y2="100.00128"
       gradientUnits="userSpaceOnUse"
       id="linearGradient4816"><stop
         style="stop-opacity:1;stop-color:#cccce6"
         offset="0"
         id="stop4806" /><stop
         style="stop-opacity:1;stop-color:#cccce6"
         offset="25.00032"
         id="stop4808" /><stop
         style="stop-opacity:1;stop-color:#e6e6f2"
         offset="50.00064"
         id="stop4810" /><stop
         style="stop-opacity:1;stop-color:#ffffff"
         offset="75.00096"
         id="stop4812" /><stop
         style="stop-opacity:1;stop-color:#ffffff"
         offset="100.00128"
         id="stop4814" /></linearGradient><clipPath
       clipPathUnits="userSpaceOnUse"
       id="clipPath4854"><path
         d="m 20.38219,8.50403 h -40.76438 c -1.57319,0 -2.83465,-1.26146 -2.83465,-2.83467 V -5.66936 c 0,-1.57321 1.26146,-2.83467 2.83465,-2.83467 h 40.76438 c 1.57319,0 2.83465,1.26146 2.83465,2.83467 V 5.66936 c 0,1.57321 -1.26146,2.83467 -2.83465,2.83467 z"
         id="path4852"
         inkscape:connector-curvature="0" /></clipPath><clipPath
       clipPathUnits="userSpaceOnUse"
       id="clipPath4868"><path
         d="M 0,0 H 100 V 100 H 0 Z"
         id="path4866"
         inkscape:connector-curvature="0" /></clipPath><linearGradient
       x1="0"
       y1="0"
       x2="0"
       y2="100.00128"
       gradientUnits="userSpaceOnUse"
       id="linearGradient4880"><stop
         style="stop-opacity:1;stop-color:#cccce6"
         offset="0"
         id="stop4870" /><stop
         style="stop-opacity:1;stop-color:#cccce6"
         offset="25.00032"
         id="stop4872" /><stop
         style="stop-opacity:1;stop-color:#e6e6f2"
         offset="50.00064"
         id="stop4874" /><stop
         style="stop-opacity:1;stop-color:#ffffff"
         offset="75.00096"
         id="stop4876" /><stop
         style="stop-opacity:1;stop-color:#ffffff"
         offset="100.00128"
         id="stop4878" /></linearGradient><clipPath
       clipPathUnits="userSpaceOnUse"
       id="clipPath4918"><path
         d="m 17.98839,8.50403 h -35.97678 c -1.57321,0 -2.83467,-1.26146 -2.83467,-2.83467 V -5.66936 c 0,-1.57321 1.26146,-2.83467 2.83467,-2.83467 h 35.97678 c 1.57321,0 2.83467,1.26146 2.83467,2.83467 V 5.66936 c 0,1.57321 -1.26146,2.83467 -2.83467,2.83467 z"
         id="path4916"
         inkscape:connector-curvature="0" /></clipPath><clipPath
       clipPathUnits="userSpaceOnUse"
       id="clipPath4932"><path
         d="M 0,0 H 100 V 100 H 0 Z"
         id="path4930"
         inkscape:connector-curvature="0" /></clipPath><linearGradient
       x1="0"
       y1="0"
       x2="0"
       y2="100.00128"
       gradientUnits="userSpaceOnUse"
       id="linearGradient4944"><stop
         style="stop-opacity:1;stop-color:#cccce6"
         offset="0"
         id="stop4934" /><stop
         style="stop-opacity:1;stop-color:#cccce6"
         offset="25.00032"
         id="stop4936" /><stop
         style="stop-opacity:1;stop-color:#e6e6f2"
         offset="50.00064"
         id="stop4938" /><stop
         style="stop-opacity:1;stop-color:#ffffff"
         offset="75.00096"
         id="stop4940" /><stop
         style="stop-opacity:1;stop-color:#ffffff"
         offset="100.00128"
         id="stop4942" /></linearGradient><clipPath
       clipPathUnits="userSpaceOnUse"
       id="clipPath4978"><path
         d="m 17.7808,8.50403 h -35.5616 c -1.5732,0 -2.83468,-1.26146 -2.83468,-2.83467 V -5.66936 c 0,-1.57321 1.26148,-2.83467 2.83468,-2.83467 h 35.5616 c 1.5732,0 2.83468,1.26146 2.83468,2.83467 V 5.66936 c 0,1.57321 -1.26148,2.83467 -2.83468,2.83467 z"
         id="path4976"
         inkscape:connector-curvature="0" /></clipPath><clipPath
       clipPathUnits="userSpaceOnUse"
       id="clipPath4992"><path
         d="M 0,0 H 100 V 100 H 0 Z"
         id="path4990"
         inkscape:connector-curvature="0" /></clipPath><linearGradient
       x1="0"
       y1="0"
       x2="0"
       y2="100.00128"
       gradientUnits="userSpaceOnUse"
       id="linearGradient5004"><stop
         style="stop-opacity:1;stop-color:#cccce6"
         offset="0"
         id="stop4994" /><stop
         style="stop-opacity:1;stop-color:#cccce6"
         offset="25.00032"
         id="stop4996" /><stop
         style="stop-opacity:1;stop-color:#e6e6f2"
         offset="50.00064"
         id="stop4998" /><stop
         style="stop-opacity:1;stop-color:#ffffff"
         offset="75.00096"
         id="stop5000" /><stop
         style="stop-opacity:1;stop-color:#ffffff"
         offset="100.00128"
         id="stop5002" /></linearGradient><clipPath
       clipPathUnits="userSpaceOnUse"
       id="clipPath5042"><path
         d="m 17.32417,8.50403 h -34.64834 c -1.5732,0 -2.83466,-1.26146 -2.83466,-2.83467 V -5.66936 c 0,-1.57321 1.26146,-2.83467 2.83466,-2.83467 h 34.64834 c 1.5732,0 2.83466,1.26146 2.83466,2.83467 V 5.66936 c 0,1.57321 -1.26146,2.83467 -2.83466,2.83467 z"
         id="path5040"
         inkscape:connector-curvature="0" /></clipPath><clipPath
       clipPathUnits="userSpaceOnUse"
       id="clipPath5056"><path
         d="M 0,0 H 100 V 100 H 0 Z"
         id="path5054"
         inkscape:connector-curvature="0" /></clipPath><linearGradient
       x1="0"
       y1="0"
       x2="0"
       y2="100.00128"
       gradientUnits="userSpaceOnUse"
       id="linearGradient5068"><stop
         style="stop-opacity:1;stop-color:#cccce6"
         offset="0"
         id="stop5058" /><stop
         style="stop-opacity:1;stop-color:#cccce6"
         offset="25.00032"
         id="stop5060" /><stop
         style="stop-opacity:1;stop-color:#e6e6f2"
         offset="50.00064"
         id="stop5062" /><stop
         style="stop-opacity:1;stop-color:#ffffff"
         offset="75.00096"
         id="stop5064" /><stop
         style="stop-opacity:1;stop-color:#ffffff"
         offset="100.00128"
         id="stop5066" /></linearGradient><clipPath
       clipPathUnits="userSpaceOnUse"
       id="clipPath5042-4"><path
         d="m 17.32417,8.50403 h -34.64834 c -1.5732,0 -2.83466,-1.26146 -2.83466,-2.83467 V -5.66936 c 0,-1.57321 1.26146,-2.83467 2.83466,-2.83467 h 34.64834 c 1.5732,0 2.83466,1.26146 2.83466,2.83467 V 5.66936 c 0,1.57321 -1.26146,2.83467 -2.83466,2.83467 z"
         id="path5040-7"
         inkscape:connector-curvature="0" /></clipPath><clipPath
       clipPathUnits="userSpaceOnUse"
       id="clipPath5056-2"><path
         d="M 0,0 H 100 V 100 H 0 Z"
         id="path5054-4"
         inkscape:connector-curvature="0" /></clipPath><linearGradient
       inkscape:collect="always"
       xlink:href="#linearGradient4752"
       id="linearGradient9456"
       gradientUnits="userSpaceOnUse"
       x1="0"
       y1="0"
       x2="0"
       y2="100.00128" /></defs><sodipodi:namedview
     pagecolor="#ffffff"
     bordercolor="#666666"
     borderopacity="1"
     objecttolerance="10"
     gridtolerance="10"
     guidetolerance="10"
     inkscape:pageopacity="0"
     inkscape:pageshadow="2"
     inkscape:window-width="1918"
     inkscape:window-height="1060"
     id="namedview4506"
     showgrid="false"
     fit-margin-top="0"
     fit-margin-left="0"
     fit-margin-right="0"
     fit-margin-bottom="0"
     inkscape:zoom="1.5607739"
     inkscape:cx="200.37998"
     inkscape:cy="167.11807"
     inkscape:window-x="0"
     inkscape:window-y="18"
     inkscape:window-maximized="0"
     inkscape:current-layer="g4512" /><g
     id="g4512"
     inkscape:groupmode="layer"
     inkscape:label="1110"
     transform="matrix(1.3333333,0,0,-1.3333333,-410.52683,552.31825)"><g
       id="g4720"
       transform="translate(407.997,384.66)"><g
         id="g4722"
         clip-path="url(#clipPath4726)"><g
           id="g4728"
           transform="scale(0.76842,0.34149)"><g
             id="g4730"><g
               id="g4732"
               transform="translate(-50,-50)"><g
                 id="g4734"><g
                   id="g4736"
                   clip-path="url(#clipPath4740)"><path
                     d="M 0,0 H 100 V 100 H 0 Z"
                     style="fill:url(#linearGradient9456);stroke:none"
                     id="path4754"
                     inkscape:connector-curvature="0" /></g></g></g></g></g></g></g><path
       d="m 424.29722,393.16403 h -32.60044 c -1.57321,0 -2.83467,-1.26146 -2.83467,-2.83467 v -11.33872 c 0,-1.57321 1.26146,-2.83467 2.83467,-2.83467 h 32.60044 c 1.57321,0 2.83467,1.26146 2.83467,2.83467 v 11.33872 c 0,1.57321 -1.26146,2.83467 -2.83467,2.83467 z"
       style="fill:none;stroke:#8080bf;stroke-width:1.19553006;stroke-linecap:butt;stroke-linejoin:miter;stroke-miterlimit:10;stroke-dasharray:none;stroke-opacity:1"
       id="path4756"
       inkscape:connector-curvature="0" /><g
       id="g4760"
       transform="translate(391.697,381.979)"><g
         id="g4762"
         transform="translate(-391.697,-381.979)"><text
           transform="matrix(1,0,0,-1,391.697,381.979)"
           style="font-variant:normal;font-weight:normal;font-size:9.96259975px;font-family:CMR10;-inkscape-font-specification:CMR10;writing-mode:lr-tb;fill:#000000;fill-opacity:1;fill-rule:nonzero;stroke:none"
           id="text4766"><tspan
             style="letter-spacing:-0.4725px"
             y="0"
             x="0"
             sodipodi:role="line"
             id="tspan4764">Parsing</tspan></text>
<g
           id="g4768"
           transform="translate(391.697,381.979)" /></g></g><g
       id="g4770"
       transform="translate(407.997,384.66)" /><g
       id="g4782"
       transform="translate(407.997,347.81)"><g
         id="g4784"><g
           clip-path="url(#clipPath4790)"
           id="g4786"><g
             transform="scale(0.73619,0.34149)"
             id="g4792"><g
               id="g4794"><g
                 transform="translate(-50,-50)"
                 id="g4796"><g
                   id="g4798"><g
                     clip-path="url(#clipPath4804)"
                     id="g4800"><path
                       inkscape:connector-curvature="0"
                       id="path4818"
                       style="fill:url(#linearGradient4816);stroke:none"
                       d="M 0,0 H 100 V 100 H 0 Z" /></g></g></g></g></g></g></g><path
         inkscape:connector-curvature="0"
         id="path4820"
         style="fill:none;stroke:#8080bf;stroke-width:1.19553006;stroke-linecap:butt;stroke-linejoin:miter;stroke-miterlimit:10;stroke-dasharray:none;stroke-opacity:1"
         d="m 15.49767,8.50403 h -30.99534 c -1.57321,0 -2.83467,-1.26146 -2.83467,-2.83467 V -5.66936 c 0,-1.57321 1.26146,-2.83467 2.83467,-2.83467 h 30.99534 c 1.57321,0 2.83467,1.26146 2.83467,2.83467 V 5.66936 c 0,1.57321 -1.26146,2.83467 -2.83467,2.83467 z" /></g><g
       transform="translate(392.5,345.129)"
       id="g4822"><g
         id="g4824"><g
           transform="translate(-392.5,-345.129)"
           id="g4826"><text
             id="text4830"
             style="font-variant:normal;font-weight:normal;font-size:9.96259975px;font-family:CMR10;-inkscape-font-specification:CMR10;writing-mode:lr-tb;fill:#000000;fill-opacity:1;fill-rule:nonzero;stroke:none"
             transform="matrix(1,0,0,-1,392.5,345.129)"><tspan
               id="tspan4828"
               sodipodi:role="line"
               x="0"
               y="0">Typing</tspan></text>
<g
             transform="translate(392.5,345.129)"
             id="g4832" /></g></g><g
         transform="translate(15.497,2.681)"
         id="g4834" /></g><g
       id="g4844"
       transform="translate(407.997,310.959)"><g
         id="g4846"><g
           id="g4848"><g
             id="g4850"
             clip-path="url(#clipPath4854)"><g
               id="g4856"
               transform="scale(0.93234,0.34149)"><g
                 id="g4858"><g
                   id="g4860"
                   transform="translate(-50,-50)"><g
                     id="g4862"><g
                       id="g4864"
                       clip-path="url(#clipPath4868)"><path
                         d="M 0,0 H 100 V 100 H 0 Z"
                         style="fill:url(#linearGradient4880);stroke:none"
                         id="path4882"
                         inkscape:connector-curvature="0" /></g></g></g></g></g></g></g><path
           d="m 20.38219,8.50403 h -40.76438 c -1.57319,0 -2.83465,-1.26146 -2.83465,-2.83467 V -5.66936 c 0,-1.57321 1.26146,-2.83467 2.83465,-2.83467 h 40.76438 c 1.57319,0 2.83465,1.26146 2.83465,2.83467 V 5.66936 c 0,1.57321 -1.26146,2.83467 -2.83465,2.83467 z"
           style="fill:none;stroke:#8080bf;stroke-width:1.19553006;stroke-linecap:butt;stroke-linejoin:miter;stroke-miterlimit:10;stroke-dasharray:none;stroke-opacity:1"
           id="path4884"
           inkscape:connector-curvature="0" /></g><g
         id="g4886"
         transform="translate(-20.382,-2.681)"><g
           id="g4888"><g
             id="g4890"
             transform="translate(-387.615,-308.278)"><text
               transform="matrix(1,0,0,-1,387.615,308.278)"
               style="font-variant:normal;font-weight:normal;font-size:9.96259975px;font-family:CMR10;-inkscape-font-specification:CMR10;writing-mode:lr-tb;fill:#000000;fill-opacity:1;fill-rule:nonzero;stroke:none"
               id="text4894"><tspan
                 style="letter-spacing:-0.4725px"
                 y="0"
                 x="0"
                 sodipodi:role="line"
                 id="tspan4892">Translate</tspan></text>
<g
               id="g4896"
               transform="translate(387.615,308.278)" /></g></g><g
           id="g4898"
           transform="translate(20.382,2.681)" /></g></g><g
       id="g4902"
       transform="translate(362.97,274.109)" /><g
       id="g4906"
       transform="translate(407.997,274.109)"><g
         id="g4908"><g
           id="g4910"><g
             id="g4912"><g
               clip-path="url(#clipPath4918)"
               id="g4914"><g
                 transform="scale(0.83621,0.34149)"
                 id="g4920"><g
                   id="g4922"><g
                     transform="translate(-50,-50)"
                     id="g4924"><g
                       id="g4926"><g
                         clip-path="url(#clipPath4932)"
                         id="g4928"><path
                           inkscape:connector-curvature="0"
                           id="path4946"
                           style="fill:url(#linearGradient4944);stroke:none"
                           d="M 0,0 H 100 V 100 H 0 Z" /></g></g></g></g></g></g></g><path
             inkscape:connector-curvature="0"
             id="path4948"
             style="fill:none;stroke:#8080bf;stroke-width:1.19553006;stroke-linecap:butt;stroke-linejoin:miter;stroke-miterlimit:10;stroke-dasharray:none;stroke-opacity:1"
             d="m 17.98839,8.50403 h -35.97678 c -1.57321,0 -2.83467,-1.26146 -2.83467,-2.83467 V -5.66936 c 0,-1.57321 1.26146,-2.83467 2.83467,-2.83467 h 35.97678 c 1.57321,0 2.83467,1.26146 2.83467,2.83467 V 5.66936 c 0,1.57321 -1.26146,2.83467 -2.83467,2.83467 z" /></g><g
           transform="translate(-17.988,-2.681)"
           id="g4950"><g
             id="g4952"><g
               transform="translate(-390.009,-271.428)"
               id="g4954"><text
                 id="text4958"
                 style="font-variant:normal;font-weight:normal;font-size:9.96259975px;font-family:CMR10;-inkscape-font-specification:CMR10;writing-mode:lr-tb;fill:#000000;fill-opacity:1;fill-rule:nonzero;stroke:none"
                 transform="matrix(1,0,0,-1,390.009,271.428)"><tspan
                   id="tspan4956"
                   sodipodi:role="line"
                   x="0"
                   y="0"
                   style="letter-spacing:-0.4725px">Simplify</tspan></text>
<g
                 transform="translate(390.009,271.428)"
                 id="g4960" /></g></g><g
             transform="translate(17.988,2.681)"
             id="g4962" /></g></g></g><g
       id="g4966"
       transform="translate(362.97,237.258)"><g
         id="g4968"><g
           id="g4970"><g
             id="g4972"><g
               id="g4974"
               clip-path="url(#clipPath4978)"><g
                 id="g4980"
                 transform="scale(0.82787,0.34149)"><g
                   id="g4982"><g
                     id="g4984"
                     transform="translate(-50,-50)"><g
                       id="g4986"><g
                         id="g4988"
                         clip-path="url(#clipPath4992)"><path
                           d="M 0,0 H 100 V 100 H 0 Z"
                           style="fill:url(#linearGradient5004);stroke:none"
                           id="path5006"
                           inkscape:connector-curvature="0" /></g></g></g></g></g></g></g><path
             d="m 17.7808,8.50403 h -35.5616 c -1.5732,0 -2.83468,-1.26146 -2.83468,-2.83467 V -5.66936 c 0,-1.57321 1.26148,-2.83467 2.83468,-2.83467 h 35.5616 c 1.5732,0 2.83468,1.26146 2.83468,2.83467 V 5.66936 c 0,1.57321 -1.26148,2.83467 -2.83468,2.83467 z"
             style="fill:none;stroke:#8080bf;stroke-width:1.19553006;stroke-linecap:butt;stroke-linejoin:miter;stroke-miterlimit:10;stroke-dasharray:none;stroke-opacity:1"
             id="path5008"
             inkscape:connector-curvature="0" /></g><g
           id="g5010"
           transform="translate(-17.781,-2.68)"><g
             id="g5012"><g
               id="g5014"
               transform="translate(-345.189,-234.578)"><text
                 transform="matrix(1,0,0,-1,345.189,234.578)"
                 style="font-variant:normal;font-weight:normal;font-size:9.96259975px;font-family:CMR10;-inkscape-font-specification:CMR10;letter-spacing:-0.4725px;writing-mode:lr-tb;fill:#000000;fill-opacity:1;fill-rule:nonzero;stroke:none"
                 id="text5018"><tspan
                   style="letter-spacing:-0.94499999px"
                   y="0"
                   x="0"
                   sodipodi:role="line"
                   id="tspan5016">Bytegen</tspan></text>
<g
                 id="g5020"
                 transform="translate(345.189,234.578)" /></g></g><g
             id="g5022"
             transform="translate(17.781,2.68)" /></g></g></g><g
       id="g5024"
       transform="translate(407.997,237.258)"><g
         id="g5026" /><g
         id="g5028"
         transform="translate(44.571)"><g
           id="g5030"><g
             id="g5032"><g
               id="g5034"><g
                 id="g5036"><g
                   id="g5038"
                   clip-path="url(#clipPath5042)"><g
                     id="g5044"
                     transform="scale(0.80954,0.34149)"><g
                       id="g5046"><g
                         id="g5048"
                         transform="translate(-50,-50)"><g
                           id="g5050"><g
                             id="g5052"
                             clip-path="url(#clipPath5056)"><path
                               d="M 0,0 H 100 V 100 H 0 Z"
                               style="fill:url(#linearGradient5068);stroke:none"
                               id="path5070"
                               inkscape:connector-curvature="0" /></g></g></g></g></g></g></g><path
                 d="m 17.32417,8.50403 h -34.64834 c -1.5732,0 -2.83466,-1.26146 -2.83466,-2.83467 V -5.66936 c 0,-1.57321 1.26146,-2.83467 2.83466,-2.83467 h 34.64834 c 1.5732,0 2.83466,1.26146 2.83466,2.83467 V 5.66936 c 0,1.57321 -1.26146,2.83467 -2.83466,2.83467 z"
                 style="fill:none;stroke:#8080bf;stroke-width:1.19553006;stroke-linecap:butt;stroke-linejoin:miter;stroke-miterlimit:10;stroke-dasharray:none;stroke-opacity:1"
                 id="path5072"
                 inkscape:connector-curvature="0" /></g><g
               id="g5074"
               transform="translate(-17.324,-2.68)"><g
                 id="g5076"><g
                   id="g5078"
                   transform="translate(-435.244,-234.578)"><text
                     transform="matrix(1,0,0,-1,435.244,234.578)"
                     style="font-variant:normal;font-weight:normal;font-size:9.96259975px;font-family:CMR10;-inkscape-font-specification:CMR10;letter-spacing:-0.94499999px;writing-mode:lr-tb;fill:#000000;fill-opacity:1;fill-rule:nonzero;stroke:none"
                     id="text5082"><tspan
                       y="0"
                       x="0"
                       sodipodi:role="line"
                       id="tspan5080">Asmgen</tspan></text>
<g
                     id="g5084"
                     transform="translate(435.244,234.578)" /></g></g><g
                 id="g5086"
                 transform="translate(17.324,2.68)" /></g></g></g><g
           id="g5088"
           transform="translate(-89.598,-36.85)"><g
             id="g5090"><g
               id="g5092"><g
                 id="g5094"
                 transform="translate(0,-2.681)"><g
                   id="g5096" /><g
                   id="g5098"
                   transform="translate(0,2.681)" /></g></g></g><g
             id="g5100"
             transform="translate(45.027)"><g
               id="g5102" /><g
               id="g5104"
               transform="translate(44.571)"><g
                 id="g5106"><g
                   id="g5108"><g
                     id="g5110"
                     transform="translate(0,-2.681)"><g
                       id="g5112" /><g
                       id="g5114"
                       transform="translate(0,2.681)" /></g></g></g><g
                 id="g5116"
                 transform="translate(-110.811)" /></g></g></g></g></g><path
       inkscape:connector-curvature="0"
       id="path5120"
       style="fill:none;stroke:#000000;stroke-width:0.3985;stroke-linecap:butt;stroke-linejoin:miter;stroke-miterlimit:10;stroke-dasharray:none;stroke-opacity:1"
       d="M 407.99663,414.2387 V 394.22096" /><path
       inkscape:connector-curvature="0"
       id="path5126"
       style="fill:none;stroke:#000000;stroke-width:0.31878999;stroke-linecap:round;stroke-linejoin:round;stroke-miterlimit:10;stroke-dasharray:none;stroke-opacity:1"
       d="m 409.59064,395.41647 c -0.59775,-0.0996 -1.4944,-1.19551 -1.59401,-1.49437 -0.0996,0.29886 -0.99626,1.39473 -1.59401,1.49437" /><text
       id="text5138"
       style="font-variant:normal;font-weight:normal;font-size:9.96259975px;font-family:CMTI10;-inkscape-font-specification:CMTI10;writing-mode:lr-tb;fill:#000000;fill-opacity:1;fill-rule:nonzero;stroke:none"
       transform="scale(1,-1)"
       x="411.517"
       y="-401.319"><tspan
         id="tspan5136"
         sodipodi:role="line"
         x="411.517"
         y="-401.319">source program</tspan></text>
<path
       inkscape:connector-curvature="0"
       id="path5144"
       style="fill:none;stroke:#000000;stroke-width:0.3985;stroke-linecap:butt;stroke-linejoin:miter;stroke-miterlimit:10;stroke-dasharray:none;stroke-opacity:1"
       d="M 407.99663,375.5591 V 357.37001" /><path
       inkscape:connector-curvature="0"
       id="path5150"
       style="fill:none;stroke:#000000;stroke-width:0.31878999;stroke-linecap:round;stroke-linejoin:round;stroke-miterlimit:10;stroke-dasharray:none;stroke-opacity:1"
       d="m 409.59064,358.56552 c -0.59775,-0.0996 -1.4944,-1.19551 -1.59401,-1.49437 -0.0996,0.29886 -0.99626,1.39473 -1.59401,1.49437" /><text
       id="text5162"
       style="font-variant:normal;font-weight:normal;font-size:9.96259975px;font-family:CMTT10;-inkscape-font-specification:CMTT10;writing-mode:lr-tb;fill:#000000;fill-opacity:1;fill-rule:nonzero;stroke:none"
       transform="scale(1,-1)"
       x="411.517"
       y="-363.55399"><tspan
         id="tspan5160"
         sodipodi:role="line"
         x="411.517"
         y="-363.55399">Parsetree</tspan></text>
<path
       inkscape:connector-curvature="0"
       id="path5168"
       style="fill:none;stroke:#000000;stroke-width:0.3985;stroke-linecap:butt;stroke-linejoin:miter;stroke-miterlimit:10;stroke-dasharray:none;stroke-opacity:1"
       d="M 407.99663,338.70815 V 320.51906" /><path
       inkscape:connector-curvature="0"
       id="path5174"
       style="fill:none;stroke:#000000;stroke-width:0.31878999;stroke-linecap:round;stroke-linejoin:round;stroke-miterlimit:10;stroke-dasharray:none;stroke-opacity:1"
       d="m 409.59064,321.71458 c -0.59775,-0.0996 -1.4944,-1.19552 -1.59401,-1.49437 -0.0996,0.29885 -0.99626,1.39472 -1.59401,1.49437" /><text
       id="text5186"
       style="font-variant:normal;font-weight:normal;font-size:9.96259975px;font-family:CMTT10;-inkscape-font-specification:CMTT10;writing-mode:lr-tb;fill:#000000;fill-opacity:1;fill-rule:nonzero;stroke:none"
       transform="scale(1,-1)"
       x="411.517"
       y="-326.70401"><tspan
         id="tspan5184"
         sodipodi:role="line"
         x="411.517"
         y="-326.70401">Typedtree</tspan></text>
<path
       inkscape:connector-curvature="0"
       id="path5192"
       style="fill:none;stroke:#000000;stroke-width:0.3985;stroke-linecap:butt;stroke-linejoin:miter;stroke-miterlimit:10;stroke-dasharray:none;stroke-opacity:1"
       d="m 407.99663,301.85722 v -18.1891" /><path
       inkscape:connector-curvature="0"
       id="path5198"
       style="fill:none;stroke:#000000;stroke-width:0.31878999;stroke-linecap:round;stroke-linejoin:round;stroke-miterlimit:10;stroke-dasharray:none;stroke-opacity:1"
       d="m 409.59064,284.86364 c -0.59775,-0.0996 -1.4944,-1.19551 -1.59401,-1.49437 -0.0996,0.29886 -0.99626,1.39473 -1.59401,1.49437" /><text
       id="text5210"
       style="font-variant:normal;font-weight:normal;font-size:9.96259975px;font-family:CMTT10;-inkscape-font-specification:CMTT10;writing-mode:lr-tb;fill:#000000;fill-opacity:1;fill-rule:nonzero;stroke:none"
       transform="scale(1,-1)"
       x="411.517"
       y="-289.853"><tspan
         id="tspan5208"
         sodipodi:role="line"
         x="411.517"
         y="-289.853">Lambda</tspan></text>
<path
       inkscape:connector-curvature="0"
       id="path5216"
       style="fill:none;stroke:#000000;stroke-width:0.3985;stroke-linecap:butt;stroke-linejoin:miter;stroke-miterlimit:10;stroke-dasharray:none;stroke-opacity:1"
       d="M 396.87817,265.00627 374.4413,246.65025" /><path
       inkscape:connector-curvature="0"
       id="path5222"
       style="fill:none;stroke:#000000;stroke-width:0.32007319;stroke-linecap:round;stroke-linejoin:round;stroke-miterlimit:10;stroke-dasharray:none;stroke-opacity:1"
       d="m 376.38375,246.17169 c -0.45747,0.40114 -1.87912,0.40116 -2.17469,0.28855 0.16891,0.26741 0.4504,1.66092 0.14778,2.18876" /><path
       inkscape:connector-curvature="0"
       id="path5232"
       style="fill:none;stroke:#000000;stroke-width:0.3985;stroke-linecap:butt;stroke-linejoin:miter;stroke-miterlimit:10;stroke-dasharray:none;stroke-opacity:1"
       d="M 419.00234,265.00627 441.20985,246.6518" /><path
       inkscape:connector-curvature="0"
       id="path5238"
       style="fill:none;stroke:#000000;stroke-width:0.31981385;stroke-linecap:round;stroke-linejoin:round;stroke-miterlimit:10;stroke-dasharray:none;stroke-opacity:1"
       d="m 441.30418,248.64849 c -0.30499,-0.52591 -0.0307,-1.91966 0.13677,-2.1877 -0.29476,0.11398 -1.71524,0.12104 -2.17433,-0.2775" /><path
       inkscape:connector-curvature="0"
       id="path5248"
       style="fill:none;stroke:#000000;stroke-width:0.3985;stroke-linecap:butt;stroke-linejoin:miter;stroke-miterlimit:10;stroke-dasharray:none;stroke-opacity:1"
       d="M 362.9688,228.15532 V 208.13759" /><path
       inkscape:connector-curvature="0"
       id="path5254"
       style="fill:none;stroke:#000000;stroke-width:0.31878999;stroke-linecap:round;stroke-linejoin:round;stroke-miterlimit:10;stroke-dasharray:none;stroke-opacity:1"
       d="m 364.56281,209.33311 c -0.59775,-0.0996 -1.4944,-1.19552 -1.59401,-1.49437 -0.0996,0.29885 -0.99626,1.39472 -1.59401,1.49437" /><text
       id="text5266"
       style="font-variant:normal;font-weight:normal;font-size:9.96259975px;font-family:CMTI10;-inkscape-font-specification:CMTI10;writing-mode:lr-tb;fill:#000000;fill-opacity:1;fill-rule:nonzero;stroke:none"
       transform="scale(1,-1)"
       x="306.99033"
       y="-215.23801"><tspan
         id="tspan5264"
         sodipodi:role="line"
         x="306.99033"
         y="-215.23801">byte code</tspan></text>
<path
       inkscape:connector-curvature="0"
       id="path5272"
       style="fill:none;stroke:#000000;stroke-width:0.3985;stroke-linecap:butt;stroke-linejoin:miter;stroke-miterlimit:10;stroke-dasharray:none;stroke-opacity:1"
       d="M 452.56785,228.15532 V 208.13759" /><path
       inkscape:connector-curvature="0"
       id="path5278"
       style="fill:none;stroke:#000000;stroke-width:0.31878999;stroke-linecap:round;stroke-linejoin:round;stroke-miterlimit:10;stroke-dasharray:none;stroke-opacity:1"
       d="m 454.16186,209.3331 c -0.59775,-0.0996 -1.4944,-1.19551 -1.59401,-1.49437 -0.0996,0.29886 -0.99626,1.39473 -1.59401,1.49437" /><text
       id="text5290"
       style="font-variant:normal;font-weight:normal;font-size:9.96259975px;font-family:CMTI10;-inkscape-font-specification:CMTI10;writing-mode:lr-tb;fill:#000000;fill-opacity:1;fill-rule:nonzero;stroke:none"
       transform="scale(1,-1)"
       x="456.08701"
       y="-215.23801"><tspan
         id="tspan5288"
         sodipodi:role="line"
         x="456.08701"
         y="-215.23801">native code</tspan></text>
</g></svg>